<svg width="31" height="20" viewBox="0 0 31 20" fill="none" xmlns="http://www.w3.org/2000/svg">
<path d="M0 20V13.4259C0 11.6975 0.192786 10.0926 0.578358 8.61111C1.04104 7.12963 1.77363 5.67901 2.77612 4.25926C3.85572 2.77778 5.24378 1.35803 6.9403 0L11.4515 2.68518C10.1405 3.85802 9.0995 4.96914 8.32836 6.01852C7.55721 7.0679 7.01741 8.08642 6.70896 9.07407C6.4005 10.0617 6.24627 11.0802 6.24627 12.1296L3.47015 10.5556H11.7985V20H0ZM19.2015 20V13.4259C19.2015 11.6975 19.3943 10.0926 19.7799 8.61111C20.2425 7.12963 20.9751 5.67901 21.9776 4.25926C23.0572 2.77778 24.4453 1.35803 26.1418 0L30.653 2.68518C29.342 3.85802 28.301 4.96914 27.5299 6.01852C26.7587 7.0679 26.2189 8.08642 25.9104 9.07407C25.602 10.0617 25.4478 11.0802 25.4478 12.1296L22.6716 10.5556H31V20H19.2015Z" fill="#E06513"/>
</svg>
