<svg width="86" height="45" viewBox="0 0 86 45" fill="none" xmlns="http://www.w3.org/2000/svg">
<path d="M81.6064 34.5943C79.7355 36.7691 77.9894 38.886 76.3537 41.234C75.7978 42.032 75.2181 42.85 74.6613 43.6209" stroke="#01202B" stroke-width="2.15769" stroke-linecap="round"/>
<path d="M4.81616 1.93924C12.3938 12.1183 24.0751 18.698 36.412 20.9666C41.011 21.8123 42.9434 22.91 49.7044 22.2154C54.0425 21.7697 55.0344 19.5543 55.8995 18.234C57.8602 15.2419 56.027 10.7793 54.4159 9.03445C51.9237 6.33545 46.0521 7.44879 43.0067 9.58992C40.2207 11.5487 36.3791 16.5734 35.8279 19.9496C35.14 24.1623 37.4234 27.7306 40.8418 30.1995C46.8539 34.5418 55.004 36.5561 62.3222 37.0079C66.7818 37.2833 71.453 36.8986 75.8091 35.9306C77.4672 35.5622 79.1034 35.2406 80.7972 35.1804" stroke="#01202B" stroke-width="2.15769" stroke-linecap="round"/>
<path d="M81.4403 34.8229C80.3564 34.1216 79.3095 33.3689 78.2241 32.6695C77.3318 32.0944 76.5813 31.3326 75.6536 30.8168C75.1307 30.5261 74.5732 30.0706 74.1831 29.6287C73.6917 29.072 72.9862 28.5918 72.3516 28.2585" stroke="#01202B" stroke-width="2.15769" stroke-linecap="round"/>
</svg>
