<svg width="2305" height="885" viewBox="0 0 2305 885" fill="none" xmlns="http://www.w3.org/2000/svg">
<line x1="512.65" y1="884" x2="512.65" y2="-1.54918e-08" stroke="#D9D9D9" stroke-width="0.7"/>
<line x1="640.65" y1="885" x2="640.65" y2="1" stroke="#D9D9D9" stroke-width="0.7"/>
<line x1="768.65" y1="885" x2="768.65" y2="1" stroke="#D9D9D9" stroke-width="0.7"/>
<line x1="896.65" y1="885" x2="896.65" y2="1" stroke="#D9D9D9" stroke-width="0.7"/>
<line x1="0.65" y1="884" x2="0.650038" y2="-1.54918e-08" stroke="#D9D9D9" stroke-width="0.7"/>
<line x1="128.65" y1="885" x2="128.65" y2="1" stroke="#D9D9D9" stroke-width="0.7"/>
<line x1="256.65" y1="885" x2="256.65" y2="1" stroke="#D9D9D9" stroke-width="0.7"/>
<line x1="384.65" y1="885" x2="384.65" y2="1" stroke="#D9D9D9" stroke-width="0.7"/>
<line x1="1024.65" y1="885" x2="1024.65" y2="1" stroke="#D9D9D9" stroke-width="0.7"/>
<line x1="1152.65" y1="885" x2="1152.65" y2="1" stroke="#D9D9D9" stroke-width="0.7"/>
<line x1="1280.65" y1="885" x2="1280.65" y2="1" stroke="#D9D9D9" stroke-width="0.7"/>
<line x1="1408.65" y1="885" x2="1408.65" y2="1" stroke="#D9D9D9" stroke-width="0.7"/>
<line x1="1536.65" y1="885" x2="1536.65" y2="1" stroke="#D9D9D9" stroke-width="0.7"/>
<line x1="1664.65" y1="885" x2="1664.65" y2="1" stroke="#D9D9D9" stroke-width="0.7"/>
<line x1="1792.65" y1="885" x2="1792.65" y2="1" stroke="#D9D9D9" stroke-width="0.7"/>
<line x1="1920.65" y1="885" x2="1920.65" y2="1" stroke="#D9D9D9" stroke-width="0.7"/>
<line x1="2048.65" y1="885" x2="2048.65" y2="1" stroke="#D9D9D9" stroke-width="0.7"/>
<line x1="2176.65" y1="885" x2="2176.65" y2="1" stroke="#D9D9D9" stroke-width="0.7"/>
<line x1="2304.65" y1="885" x2="2304.65" y2="1" stroke="#D9D9D9" stroke-width="0.7"/>
<line x1="1" y1="131.65" x2="2305" y2="131.65" stroke="#D9D9D9" stroke-width="0.7"/>
<line x1="1" y1="0.65" x2="2305" y2="0.650162" stroke="#D9D9D9" stroke-width="0.7"/>
<line x1="1" y1="256.65" x2="2305" y2="256.65" stroke="#D9D9D9" stroke-width="0.7"/>
<line x1="1" y1="384.65" x2="2305" y2="384.65" stroke="#D9D9D9" stroke-width="0.7"/>
<line x1="1" y1="512.65" x2="2305" y2="512.65" stroke="#D9D9D9" stroke-width="0.7"/>
<line x1="1" y1="640.65" x2="2305" y2="640.65" stroke="#D9D9D9" stroke-width="0.7"/>
<line x1="1" y1="768.65" x2="2305" y2="768.65" stroke="#D9D9D9" stroke-width="0.7"/>
<line x1="1" y1="884.65" x2="2305" y2="884.65" stroke="#D9D9D9" stroke-width="0.7"/>
</svg>
