<svg width="43" height="43" viewBox="0 0 43 43" fill="none" xmlns="http://www.w3.org/2000/svg">
<path fill-rule="evenodd" clip-rule="evenodd" d="M30.7371 18.5515C29.111 20.4133 26.52 21.8567 22.7044 22.7545C15.2771 24.5021 12.395 26.9435 11.459 29.2735C10.502 31.6558 11.3208 34.4919 12.8284 37.7225L10.4906 38.8135C8.98836 35.5945 7.65722 31.8165 9.06511 28.3118C10.494 24.755 14.4916 22.0366 22.1135 20.2432C25.6075 19.4211 27.6387 18.1772 28.794 16.8544C29.9303 15.5534 30.3333 14.0457 30.3099 12.4343C30.2861 10.7928 29.8182 9.08389 29.2385 7.48803C28.9506 6.69551 28.6436 5.95263 28.3599 5.26821L28.3323 5.2018C28.0661 4.55962 27.8081 3.93738 27.6349 3.41777L30.0824 2.60194C30.2257 3.03188 30.453 3.58044 30.7431 4.28034C31.0254 4.96143 31.3533 5.7537 31.6633 6.60719C32.2795 8.30335 32.8596 10.3298 32.8895 12.3969C32.9199 14.4941 32.3822 16.668 30.7371 18.5515Z" fill="#E06513"/>
<circle cx="16.3892" cy="12.0394" r="2.57986" fill="#E06513"/>
<circle cx="24.9887" cy="30.9584" r="2.57986" fill="#E06513"/>
<path fill-rule="evenodd" clip-rule="evenodd" d="M21.119 39.5579C31.3302 39.5579 39.608 31.2801 39.608 21.0689C39.608 10.8577 31.3302 2.57986 21.119 2.57986C10.9078 2.57986 2.62997 10.8577 2.62997 21.0689C2.62997 31.2801 10.9078 39.5579 21.119 39.5579ZM21.119 42.1378C32.755 42.1378 42.1879 32.7049 42.1879 21.0689C42.1879 9.43286 32.755 0 21.119 0C9.48297 0 0.0501099 9.43286 0.0501099 21.0689C0.0501099 32.7049 9.48297 42.1378 21.119 42.1378Z" fill="#E06513"/>
</svg>
