<svg width="49" height="43" viewBox="0 0 49 43" fill="none" xmlns="http://www.w3.org/2000/svg">
<path fill-rule="evenodd" clip-rule="evenodd" d="M24.0648 4.30205L3.21196 40.4201H44.9175L24.0648 4.30205ZM25.5542 1.72218C24.8922 0.575578 23.2373 0.575576 22.5753 1.72218L0.232991 40.4201C-0.429003 41.5667 0.398486 43 1.72247 43H46.407C47.731 43 48.5585 41.5667 47.8965 40.4201L25.5542 1.72218Z" fill="#E06513"/>
<path fill-rule="evenodd" clip-rule="evenodd" d="M24.0648 34.4005C27.3893 34.4005 30.0844 31.7054 30.0844 28.3808C30.0844 25.0562 27.3893 22.3611 24.0648 22.3611C20.7402 22.3611 18.0451 25.0562 18.0451 28.3808C18.0451 31.7054 20.7402 34.4005 24.0648 34.4005ZM24.0648 36.9803C28.8142 36.9803 32.6643 33.1302 32.6643 28.3808C32.6643 23.6314 28.8142 19.7812 24.0648 19.7812C19.3154 19.7812 15.4652 23.6314 15.4652 28.3808C15.4652 33.1302 19.3154 36.9803 24.0648 36.9803Z" fill="#E06513"/>
</svg>
