<svg width="49" height="43" viewBox="0 0 49 43" fill="none" xmlns="http://www.w3.org/2000/svg">
<mask id="mask0_2900_4180" style="mask-type:luminance" maskUnits="userSpaceOnUse" x="0" y="0" width="49" height="43">
<path d="M48.0501 0H0.129517V43H48.0501V0Z" fill="white"/>
<path fill-rule="evenodd" clip-rule="evenodd" d="M45.7937 2.2236H2.38596V40.7764H45.7937V2.2236ZM48.0501 0V43H0.129517V0H48.0501Z" fill="white"/>
</mask>
<g mask="url(#mask0_2900_4180)">
<path fill-rule="evenodd" clip-rule="evenodd" d="M20.8475 0.841492L22.6468 0.924476L24.4188 1.17405L26.1478 1.58588L27.8185 2.15418L29.4166 2.87184L30.9285 3.73043L32.3415 4.72037L33.6441 5.83096L34.8258 7.05056L35.8774 8.36666L36.7912 9.76604L37.5606 11.2349L38.1805 12.7588L38.6474 14.3234L38.9589 15.9137L39.1143 17.515L39.1144 19.1125L38.9614 20.6917L38.6586 22.2385L38.2109 23.7392L37.6245 25.1809L36.9067 26.5511L36.0658 27.8384L35.1113 29.0322L34.0535 30.123L32.9036 31.1023L31.6734 31.9628L30.3755 32.6984L29.0225 33.3042L27.6277 33.7765L26.2046 34.1132L24.7665 34.3131L23.3268 34.3765L21.8988 34.3048L20.4953 34.101L19.1289 33.7688L17.8115 33.3134L16.5544 32.7409L15.3681 32.0584L14.2624 31.2738L13.2463 30.3962L12.3274 29.4351L11.5128 28.4006L10.8082 27.3036L10.2181 26.1551L9.74619 24.9667L9.39472 23.7499L9.16488 22.5164L9.05668 21.2779L9.06901 20.046L9.19964 18.8319L9.44526 17.6465L9.80154 16.5002L10.2632 15.403L10.824 14.3641L11.477 13.3922L12.2144 12.4948L13.0277 11.6791L13.9081 10.951L14.846 10.3156L15.8315 9.77713L16.8547 9.33864L17.9052 9.00229L18.9726 8.7692L20.0468 8.63949L21.1174 8.61229L22.1746 8.68578L23.2088 8.85719L24.2106 9.12291L25.1714 9.47845L26.083 9.91858L26.938 10.4374L27.7294 11.0282L28.4511 11.684L29.098 12.397L29.6654 13.1594L30.15 13.9627L30.5488 14.7984L30.8602 15.6578L31.0831 16.5323L31.2176 17.413L31.2643 18.2916L31.2251 19.1595L31.1023 20.0088L30.8992 20.8317L30.6196 21.6211L30.2683 22.3701L29.8503 23.0725L29.3716 23.7227L28.8382 24.3158L28.2568 24.8474L27.6343 25.3141L26.978 25.713L26.2951 26.0421L25.5931 26.2999L24.8795 26.486L24.1616 26.6006L23.4467 26.6444L22.7418 26.6192L22.0536 26.5272L21.3886 26.3712L20.7527 26.1548L20.1515 25.8819L19.5901 25.557L19.0728 25.1851L18.6038 24.7714L18.1861 24.3214L17.8226 23.8411L17.5153 23.3362L17.2654 22.8131L17.0739 22.2776L16.9407 21.7359L16.8653 21.194L16.8466 20.6576L16.8828 20.1324L16.9717 19.6237L17.1104 19.1364L17.2957 18.6752L17.5239 18.2443L17.7909 17.8475L18.0924 17.4881L18.4236 17.1689L18.7798 16.8921L19.1559 16.6595L19.5467 16.4724L19.9471 16.3313L20.3519 16.2366L20.756 16.1878L21.1544 16.184L21.5423 16.224L21.915 16.306L22.268 16.4277L22.5971 16.5867L22.8984 16.7798L23.1682 17.0039L23.4032 17.2552L23.6003 17.5299L23.7566 17.8236L23.8696 18.1316L23.9372 18.4491L23.9575 18.7704L23.9291 19.0897L23.8512 19.4003L23.7238 19.6947L23.5482 19.9652L23.3271 20.2032L23.0654 20.4L22.7702 20.5476L22.451 20.6392L21.1028 20.7654L20.8894 18.5518L21.4332 18.5008L21.3957 18.4827L21.2943 18.4478L21.1779 18.4222L21.0475 18.4087L20.9046 18.4101L20.7512 18.4286L20.5895 18.4664L20.4221 18.5254L20.2519 18.6069L20.0819 18.7121L19.9153 18.8415L19.7555 18.9956L19.6058 19.174L19.4696 19.3763L19.3504 19.6014L19.2514 19.8479L19.1757 20.1139L19.1262 20.3971L19.1057 20.6949L19.1165 21.0043L19.1607 21.322L19.24 21.6445L19.3556 21.9679L19.5086 22.2882L19.6992 22.6013L19.9274 22.9028L20.1926 23.1886L20.4938 23.4542L20.8294 23.6956L21.1974 23.9085L21.5951 24.089L22.0197 24.2335L22.4676 24.3386L22.9349 24.4011L23.4174 24.4183L23.9106 24.3881L24.4094 24.3085L24.9088 24.1783L25.4033 23.9966L25.8876 23.7633L26.3559 23.4786L26.8027 23.1436L27.2226 22.7597L27.6099 22.329L27.9594 21.8543L28.2662 21.3388L28.5253 20.7863L28.7326 20.2011L28.8839 19.5882L28.9758 18.9527L29.0053 18.3004L28.97 17.6372L28.868 16.9696L28.6984 16.3041L28.4605 15.6474L28.1545 15.0063L27.7815 14.3879L27.343 13.7989L26.8415 13.246L26.2799 12.7357L25.6621 12.2745L24.9926 11.8682L24.2764 11.5224L23.5192 11.2422L22.7273 11.0322L21.9075 10.8963L21.067 10.8379L20.2135 10.8596L19.3548 10.9633L18.4993 11.1501L17.6551 11.4204L16.8309 11.7736L16.0349 12.2085L15.2757 12.7229L14.5613 13.3137L13.8998 13.9771L13.2987 14.7086L12.7653 15.5027L12.3061 16.3532L11.9274 17.2534L11.6344 18.1958L11.4321 19.1723L11.3243 20.1745L11.3141 21.1934L11.4037 22.2196L11.5945 23.2435L11.8869 24.2555L12.2801 25.2457L12.7725 26.2043L13.3617 27.1215L14.0439 27.9878L14.8147 28.7941L15.6685 29.5315L16.599 30.1917L17.5989 30.767L18.6602 31.2504L19.7741 31.6354L20.9311 31.9167L22.1212 32.0895L23.3338 32.1503L24.5581 32.0964L25.7827 31.9262L26.9963 31.6392L28.1872 31.2358L29.344 30.7179L30.4552 30.0882L31.5096 29.3506L32.4965 28.5101L33.4055 27.5727L34.2267 26.5456L34.9511 25.4367L35.5701 24.2551L36.0764 23.0104L36.4634 21.7132L36.7254 20.3747L36.858 19.0066L36.8579 17.6212L36.7229 16.231L36.4522 14.8489L36.0461 13.4878L35.5062 12.1606L34.8355 10.8802L34.0381 9.65905L33.1195 8.50949L32.0863 7.44318L30.9464 6.47124L29.7087 5.6041L28.3831 4.85132L26.9807 4.22152L25.5131 3.72234L23.9931 3.36029L22.4339 3.14069L20.8493 3.06761L19.2536 3.14381L17.6613 3.3707L16.0871 3.74832L14.5457 4.27529L13.0519 4.94882L11.6201 5.76474L10.2642 6.71748L8.99772 7.80014L7.83359 9.00452L6.78385 10.3212L5.85967 11.7395L5.07121 13.2478L4.4275 14.8334L3.93633 16.4827L3.60419 18.1815L3.43619 19.9147L3.43596 21.6669L3.60565 23.4224L3.94584 25.1649L4.45556 26.8784L5.13225 28.5468L5.97179 30.1542L6.96848 31.6853L8.11513 33.1249L9.40303 34.4587L10.8221 35.6734L12.361 36.7564L14.007 37.6961L15.7464 38.4822L17.5642 39.1058L19.4449 39.5592L21.3719 39.8362L23.3282 39.9324L25.2962 39.8447L27.258 39.5718L29.1957 39.1142L31.0912 38.4738L32.9269 37.6544L34.6851 36.6617L36.349 35.5026L37.9025 34.1859L39.33 32.7219L40.6171 31.1223L41.7506 29.4003L42.7184 27.5703L43.51 25.6477L44.1162 23.6491L44.5294 21.592L44.8625 18.3357L47.1076 18.5587L46.7638 21.9202L46.3088 24.1846L45.6412 26.3857L44.769 28.5042L43.702 30.5217L42.4518 32.4211L41.0314 34.1863L39.4552 35.8027L37.7391 37.2573L35.9 38.5384L33.9556 39.6363L31.9245 40.5429L29.826 41.2519L27.6796 41.7588L25.5053 42.0613L23.3229 42.1585L21.1523 42.0518L19.0129 41.7442L16.9238 41.2405L14.9032 40.5474L12.9688 39.6731L11.1371 38.6274L9.42348 37.4215L7.84231 36.0681L6.40642 34.581L5.12722 32.9749L4.01461 31.2659L3.07682 29.4703L2.32044 27.6054L1.75031 25.6889L1.36955 23.7385L1.1795 21.7725L1.17976 19.8086L1.36818 17.8647L1.74095 15.9581L2.2926 14.1057L3.0161 12.3236L3.90293 10.6271L4.94318 9.03065L6.12564 7.54754L7.43794 6.18987L8.86668 4.96846L10.3975 3.8928L12.0154 2.97088L13.7046 2.20924L15.449 1.61286L17.232 1.18515L19.037 0.927946L20.8475 0.841492Z" fill="#E06513" stroke="#E06513" stroke-width="0.438776" stroke-linecap="square"/>
</g>
<path fill-rule="evenodd" clip-rule="evenodd" d="M19.5905 17.113C20.0161 16.6936 20.5934 16.4579 21.1953 16.4579C21.7972 16.4579 22.3745 16.6936 22.8001 17.113C23.2257 17.5324 23.4648 18.1013 23.4648 18.6944C23.4648 19.2876 23.2257 19.8565 22.8001 20.2759C22.3745 20.6953 21.7972 20.9309 21.1953 20.9309C20.5934 20.9309 20.0161 20.6953 19.5905 20.2759C19.1648 19.8565 18.9257 19.2876 18.9257 18.6944C18.9257 18.1013 19.1648 17.5324 19.5905 17.113ZM21.1953 18.6371C21.1798 18.6371 21.165 18.6431 21.1541 18.6539C21.1432 18.6646 21.137 18.6792 21.137 18.6944C21.137 18.7096 21.1432 18.7242 21.1541 18.735C21.165 18.7457 21.1798 18.7518 21.1953 18.7518C21.2107 18.7518 21.2255 18.7457 21.2364 18.735C21.2473 18.7242 21.2535 18.7096 21.2535 18.6944C21.2535 18.6792 21.2473 18.6646 21.2364 18.6539C21.2255 18.6431 21.2107 18.6371 21.1953 18.6371Z" fill="#E06513"/>
</svg>
